[quote][img]http://img838.imageshack.us/img838/1928/5933.jpg[/img]
[img]http://img24.imageshack.us/img24/7453/infohr.png[/img]
-------------------------------------------------------------------------------
                              General Information
-------------------------------------------------------------------------------




-------------------------------------------------------------------------------
                                 Release Notes
-------------------------------------------------------------------------------
General
Complete name                    : The Hangover 2011 Part 2 BRrip Dual Audio 
Eng-Hindi[~HFR~]
Format                           : Matroska
Format version                   : Version 2
File size                        : 395 MiB
Duration                         : 1h 37mn

Video
ID                               : 1
Format                           : AVC
Format/Info                      : Advanced Video Codec
Format profile                   : Main@L3.0
Format settings, CABAC           : Yes
Format settings, ReFrames        : 4 frames
Format settings, GOP             : M=3, N=53
Muxing mode                      : Header stripping
Codec ID                         : V_MPEG4/ISO/AVC
Duration                         : 1h 37mn
Bit rate                         : 450 Kbps
Width                            : 720 pixels
Height                           : 480 pixels
Display aspect ratio             : 2.40:1
Frame rate mode                  : Variable
Frame rate                       : 25.000 fps
Standard                         : NTSC
Color space                      : YUV
Chroma subsampling               : 4:2:0
Bit depth                        : 8 bits
Scan type                        : Progressive
Bits/(Pixel*Frame)               : 0.052
Stream size                      : 315 MiB (80%)
Writing library                  : x264 core 112
Language                         : English

Audio #1
ID                               : 2
Format                           : MPEG Audio
Format version                   : Version 2
Format profile                   : Layer 3
Mode                             : Joint stereo
Mode extension                   : MS Stereo
Muxing mode                      : Header stripping
Codec ID                         : A_MPEG/L3
Codec ID/Hint                    : MP3
Duration                         : 1h 37mn
Bit rate mode                    : Constant
Bit rate                         : 48.0 Kbps
Channel(s)                       : 2 channels
Sampling rate                    : 22.05 KHz
Compression mode                 : Lossy
Stream size                      : 33.5 MiB (8%)
Title                            : [~HFR~]
Writing library                  : LAME3.98.4UUUUUULAME
Language                         : English

Audio #2
ID                               : 3
Format                           : MPEG Audio
Format version                   : Version 2
Format profile                   : Layer 3
Mode                             : Joint stereo
Mode extension                   : MS Stereo
Muxing mode                      : Header stripping
Codec ID                         : A_MPEG/L3
Codec ID/Hint                    : MP3
Duration                         : 1h 37mn
Bit rate mode                    : Constant
Bit rate                         : 56.0 Kbps
Channel(s)                       : 2 channels
Sampling rate                    : 24.0 KHz
Compression mode                 : Lossy
Title                            : [~HFR~]
Writing library                  : LAME3.98.4UUUUUUUUd
Language                         : Hindi [Source-Henry]

[img]http://img4.imageshack.us/img4/959/plotbi.png[/img]
Stu is getting married. Along with Doug, Phil, and his soon-to-be brother-in-law Teddy, he regretfully invites Alan to Thailand for the wedding. After a quiet night on the beach with a beer and toasting marshmallows by the camp fire, Stu, Alan and Phil wake up in a seedy apartment in Bangkok. Doug is back at the resort, but Teddy is missing, there's a monkey with a severed finger, Alan's head is shaved, Stu has a tattoo on his face, and they can't remember any of it. The wolf-pack retrace their steps through strip clubs, tattoo parlors and cocaine-dealing monkeys on the streets of Bangkok as they try and find Teddy before the wedding
[img]http://img546.imageshack.us/img546/3949/imdblogoy.png[/img]
[url]http://www.imdb.com/title/tt1411697/[/url]

[img]http://img696.imageshack.us/img696/9545/castec.png[/img]
Director:
Todd Phillips
Writers:
Craig Mazin, Scot Armstrong, and 3 more credits »
Stars:
Bradley Cooper, Zach Galifianakis and Ed Helms 
[img]http://img846.imageshack.us/img846/4092/boxx.jpg[/img]
Budget:
$80,000,000 (estimated)
Opening Weekend:
$86,035,000 (USA) (29 May 2011) (3615 Screens)
Gross:
$254,455,986 (USA) (11 September 2011) 
[img]http://img31.imageshack.us/img31/640/screendta.png[/img]
[img]http://img32.imageshack.us/img32/2668/vlcsnap2011111714h25m26.png[/img]
[img]http://img593.imageshack.us/img593/1360/vlcsnap2011111714h25m36.png[/img]
[img]http://img522.imageshack.us/img522/1596/vlcsnap2011111714h25m54.png[/img]
[img]http://img213.imageshack.us/img213/3674/vlcsnap2011111714h25m57.png[/img]
[img]http://img11.imageshack.us/img11/157/vlcsnap2011111714h26m00.png[/img]
[img]http://img842.imageshack.us/img842/1870/thehangover2011part2brr.jpg[/img]

[img]http://img14.imageshack.us/img14/6105/hiee.gif[/img]
[img]http://img98.imageshack.us/img98/4050/seedv.gif[/img]
[img]http://img855.imageshack.us/img855/6715/91555204.png[/img]